<svg width="18" height="19" viewBox="0 0 18 19" fill="none" xmlns="http://www.w3.org/2000/svg">
<g id="search">
<path id="Vector" d="M11.6251 10.999H11.0326L10.8226 10.7965C11.7226 9.7465 12.1876 8.314 11.9326 6.7915C11.5801 4.7065 9.8401 3.0415 7.7401 2.7865C4.5676 2.3965 1.8976 5.0665 2.2876 8.239C2.5426 10.339 4.2076 12.079 6.2926 12.4315C7.8151 12.6865 9.2476 12.2215 10.2976 11.3215L10.5001 11.5315V12.124L13.6876 15.3115C13.9951 15.619 14.4976 15.619 14.8051 15.3115C15.1126 15.004 15.1126 14.5015 14.8051 14.194L11.6251 10.999ZM7.1251 10.999C5.2576 10.999 3.7501 9.4915 3.7501 7.624C3.7501 5.7565 5.2576 4.249 7.1251 4.249C8.9926 4.249 10.5001 5.7565 10.5001 7.624C10.5001 9.4915 8.9926 10.999 7.1251 10.999Z" fill="#A6A6A6"/>
</g>
</svg>
