<svg width="48" height="48" viewBox="0 0 48 48" fill="none" xmlns="http://www.w3.org/2000/svg">
<g clip-path="url(#clip0_313_1241)">
<path d="M23.9996 30.3996C27.5342 30.3996 30.3996 27.5342 30.3996 23.9996C30.3996 20.465 27.5342 17.5996 23.9996 17.5996C20.465 17.5996 17.5996 20.465 17.5996 23.9996C17.5996 27.5342 20.465 30.3996 23.9996 30.3996Z" fill="black"/>
<path d="M18 4L14.34 8H8C5.79 8 4 9.79 4 12V36C4 38.21 5.79 40 8 40H40C42.21 40 44 38.21 44 36V12C44 9.79 42.21 8 40 8H33.66L30 4H18ZM24 34C18.48 34 14 29.52 14 24C14 18.48 18.48 14 24 14C29.52 14 34 18.48 34 24C34 29.52 29.52 34 24 34Z" fill="black"/>
</g>
<defs>
<clipPath id="clip0_313_1241">
<rect width="48" height="48" fill="white"/>
</clipPath>
</defs>
</svg>
