<svg width="32" height="32" viewBox="0 0 32 32" fill="none" xmlns="http://www.w3.org/2000/svg">
<path d="M7.87891 11.1836H10.7238V16.2182H7.87891V14.0379V11.1836Z" fill="url(#paint0_linear_4861_10865)"/>
<path d="M10.7197 16.2975V11.1836L3.84448 18.1607C3.37059 19.5482 5.86036 20.8564 6.88695 20.8564C10.1306 20.8564 10.746 17.4603 10.7197 16.2975Z" fill="url(#paint1_linear_4861_10865)"/>
<path d="M1 16.1782V11.1436C2.97563 11.5004 3.96345 12.1742 3.96345 16.1782C3.96345 20.1821 5.87322 20.7768 6.84787 20.8561C2.20118 20.8561 1 18.5171 1 16.1782Z" fill="#30D64B"/>
<path d="M12.2381 20.8614C12.1455 20.8614 12.0621 20.8289 11.9879 20.7642C11.9231 20.6993 11.8906 20.616 11.8906 20.5142V11.4864C11.8906 11.3845 11.9231 11.3012 11.9879 11.2364C12.0621 11.1716 12.1455 11.1392 12.2381 11.1392H13.7393C13.8876 11.1392 13.9988 11.1808 14.0729 11.2642C14.1563 11.3382 14.2072 11.3984 14.2258 11.4447L16.6721 15.8336L19.1185 11.4447C19.1463 11.3984 19.1926 11.3382 19.2575 11.2642C19.3316 11.1808 19.4475 11.1392 19.605 11.1392H21.0923C21.1942 11.1392 21.2776 11.1716 21.3425 11.2364C21.4166 11.3012 21.4537 11.3845 21.4537 11.4864V20.5142C21.4537 20.616 21.4166 20.6993 21.3425 20.7642C21.2776 20.8289 21.1942 20.8614 21.0923 20.8614H19.4382C19.3363 20.8614 19.2482 20.8289 19.1741 20.7642C19.1092 20.6993 19.0768 20.616 19.0768 20.5142V15.3058L17.5061 18.2086C17.4691 18.2919 17.4135 18.366 17.3393 18.4308C17.2652 18.4956 17.1633 18.528 17.0335 18.528H16.3107C16.181 18.528 16.0791 18.4956 16.005 18.4308C15.9308 18.366 15.8706 18.2919 15.8243 18.2086L14.2536 15.3058V20.5142C14.2536 20.616 14.2211 20.6993 14.1563 20.7642C14.0914 20.8289 14.008 20.8614 13.9061 20.8614H12.2381Z" fill="#2AA3D9"/>
<path d="M26.8188 21C25.8922 21 25.123 20.8703 24.5115 20.6111C23.8999 20.3426 23.4365 19.9954 23.1215 19.5694C22.8064 19.1435 22.6396 18.6898 22.6211 18.2083C22.6211 18.1343 22.6489 18.0694 22.7045 18.0139C22.7694 17.9491 22.8435 17.9167 22.9269 17.9167H24.6783C24.808 17.9167 24.9053 17.9398 24.9702 17.9861C25.0443 18.0324 25.1091 18.0926 25.1647 18.1667C25.2389 18.3056 25.3408 18.4398 25.4705 18.5694C25.6095 18.6991 25.7856 18.8056 25.9987 18.8889C26.2211 18.963 26.4945 19 26.8188 19C27.3563 19 27.7594 18.9167 28.0281 18.75C28.3061 18.5833 28.4451 18.3565 28.4451 18.0694C28.4451 17.8657 28.371 17.6991 28.2227 17.5694C28.0744 17.4306 27.8335 17.3102 27.4999 17.2083C27.1756 17.0972 26.7401 16.9861 26.1933 16.875C25.4891 16.7269 24.8868 16.537 24.3864 16.3056C23.8952 16.0648 23.5199 15.7546 23.2605 15.375C23.001 14.9861 22.8713 14.5046 22.8713 13.9306C22.8713 13.3657 23.0288 12.8611 23.3439 12.4167C23.6682 11.9722 24.1176 11.625 24.6922 11.375C25.2667 11.125 25.9478 11 26.7354 11C27.3748 11 27.9354 11.0833 28.4173 11.25C28.9084 11.4167 29.3208 11.6389 29.6544 11.9167C29.988 12.1944 30.2382 12.4907 30.405 12.8056C30.581 13.1111 30.6737 13.412 30.6829 13.7083C30.6829 13.7824 30.6551 13.8519 30.5995 13.9167C30.5439 13.9722 30.4745 14 30.3911 14H28.5563C28.4544 14 28.3663 13.9815 28.2922 13.9444C28.2181 13.9074 28.1532 13.8472 28.0976 13.7639C28.042 13.5602 27.8937 13.3843 27.6528 13.2361C27.4211 13.0787 27.1153 13 26.7354 13C26.3277 13 26.008 13.0741 25.7763 13.2222C25.5539 13.3611 25.4427 13.5787 25.4427 13.875C25.4427 14.0602 25.503 14.2222 25.6234 14.3611C25.7532 14.5 25.9617 14.6204 26.2489 14.7222C26.5455 14.8241 26.9486 14.9306 27.4582 15.0417C28.3015 15.1991 28.9825 15.3981 29.5015 15.6389C30.0204 15.8704 30.4003 16.1759 30.6412 16.5556C30.8822 16.9259 31.0026 17.3935 31.0026 17.9583C31.0026 18.588 30.8219 19.1343 30.4606 19.5972C30.1084 20.0509 29.6173 20.3981 28.9872 20.6389C28.3571 20.8797 27.6343 21 26.8188 21Z" fill="#2AA3D9"/>
<defs>
<linearGradient id="paint0_linear_4861_10865" x1="9.30136" y1="11.1836" x2="9.30136" y2="18.2003" gradientUnits="userSpaceOnUse">
<stop stop-color="#2AA3D9"/>
<stop offset="1"/>
</linearGradient>
<linearGradient id="paint1_linear_4861_10865" x1="6.76927" y1="17.6849" x2="-4.7146" y2="25.8157" gradientUnits="userSpaceOnUse">
<stop stop-color="#2AA3D9"/>
<stop offset="1"/>
</linearGradient>
</defs>
</svg>
