<svg width="24" height="24" viewBox="0 0 24 24" fill="none" xmlns="http://www.w3.org/2000/svg">
<path d="M12.1098 15.3891L8.22984 19.2691C7.76007 19.7225 7.1327 19.9759 6.47984 19.9759C5.82698 19.9759 5.1996 19.7225 4.72984 19.2691C4.49944 19.0396 4.31663 18.7669 4.19189 18.4666C4.06715 18.1663 4.00294 17.8443 4.00294 17.5191C4.00294 17.1939 4.06715 16.8719 4.19189 16.5716C4.31663 16.2713 4.49944 15.9986 4.72984 15.7691L8.60984 11.8891C8.79814 11.7008 8.90393 11.4454 8.90393 11.1791C8.90393 10.9128 8.79814 10.6574 8.60984 10.4691C8.42153 10.2808 8.16614 10.175 7.89984 10.175C7.63353 10.175 7.37814 10.2808 7.18984 10.4691L3.30984 14.3591C2.52819 15.2099 2.10546 16.3298 2.12991 17.4849C2.15436 18.64 2.62412 19.7409 3.44107 20.5579C4.25802 21.3748 5.359 21.8446 6.51408 21.869C7.66917 21.8935 8.78904 21.4708 9.63984 20.6891L13.5298 16.8091C13.7181 16.6208 13.8239 16.3654 13.8239 16.0991C13.8239 15.8328 13.7181 15.5774 13.5298 15.3891C13.3415 15.2008 13.0861 15.095 12.8198 15.095C12.5535 15.095 12.2981 15.2008 12.1098 15.3891ZM20.6898 3.30912C19.8486 2.47313 18.7108 2.00391 17.5248 2.00391C16.3389 2.00391 15.2011 2.47313 14.3598 3.30912L10.4698 7.18912C10.3766 7.28236 10.3026 7.39305 10.2522 7.51487C10.2017 7.63669 10.1757 7.76726 10.1757 7.89912C10.1757 8.03098 10.2017 8.16155 10.2522 8.28337C10.3026 8.40519 10.3766 8.51588 10.4698 8.60912C10.5631 8.70236 10.6738 8.77632 10.7956 8.82678C10.9174 8.87724 11.048 8.90321 11.1798 8.90321C11.3117 8.90321 11.4423 8.87724 11.5641 8.82678C11.6859 8.77632 11.7966 8.70236 11.8898 8.60912L15.7698 4.72912C16.2396 4.27574 16.867 4.02237 17.5198 4.02237C18.1727 4.02237 18.8001 4.27574 19.2698 4.72912C19.5002 4.9586 19.683 5.23133 19.8078 5.53164C19.9325 5.83195 19.9967 6.15393 19.9967 6.47912C19.9967 6.8043 19.9325 7.12629 19.8078 7.4266C19.683 7.72691 19.5002 7.99963 19.2698 8.22912L15.3898 12.1091C15.2961 12.2021 15.2217 12.3127 15.1709 12.4345C15.1202 12.5564 15.094 12.6871 15.094 12.8191C15.094 12.9511 15.1202 13.0818 15.1709 13.2037C15.2217 13.3256 15.2961 13.4362 15.3898 13.5291C15.4828 13.6228 15.5934 13.6972 15.7153 13.748C15.8371 13.7988 15.9678 13.8249 16.0998 13.8249C16.2318 13.8249 16.3626 13.7988 16.4844 13.748C16.6063 13.6972 16.7169 13.6228 16.8098 13.5291L20.6898 9.63912C21.5258 8.7979 21.995 7.66009 21.995 6.47412C21.995 5.28814 21.5258 4.15034 20.6898 3.30912ZM8.82984 15.1691C8.92328 15.2618 9.03409 15.3351 9.15593 15.3849C9.27777 15.4347 9.40823 15.4599 9.53984 15.4591C9.67144 15.4599 9.80191 15.4347 9.92374 15.3849C10.0456 15.3351 10.1564 15.2618 10.2498 15.1691L15.1698 10.2491C15.3581 10.0608 15.4639 9.80542 15.4639 9.53912C15.4639 9.27282 15.3581 9.01742 15.1698 8.82912C14.9815 8.64081 14.7261 8.53503 14.4598 8.53503C14.1935 8.53503 13.9381 8.64081 13.7498 8.82912L8.82984 13.7491C8.73611 13.8421 8.66171 13.9527 8.61095 14.0745C8.56018 14.1964 8.53404 14.3271 8.53404 14.4591C8.53404 14.5911 8.56018 14.7218 8.61095 14.8437C8.66171 14.9656 8.73611 15.0762 8.82984 15.1691Z" fill="black"/>
</svg>
