<svg width="22" height="22" viewBox="0 0 22 22" fill="none" xmlns="http://www.w3.org/2000/svg">
<g id="date-range">
<path id="Vector" d="M17.4167 3.66781H16.5V2.75114C16.5 2.24697 16.0875 1.83447 15.5833 1.83447C15.0792 1.83447 14.6667 2.24697 14.6667 2.75114V3.66781H7.33333V2.75114C7.33333 2.24697 6.92083 1.83447 6.41667 1.83447C5.9125 1.83447 5.5 2.24697 5.5 2.75114V3.66781H4.58333C3.56583 3.66781 2.75917 4.49281 2.75917 5.50114L2.75 18.3345C2.75 19.3428 3.56583 20.1678 4.58333 20.1678H17.4167C18.425 20.1678 19.25 19.3428 19.25 18.3345V5.50114C19.25 4.49281 18.425 3.66781 17.4167 3.66781ZM17.4167 17.4178C17.4167 17.922 17.0042 18.3345 16.5 18.3345H5.5C4.99583 18.3345 4.58333 17.922 4.58333 17.4178V8.25114H17.4167V17.4178ZM6.41667 10.0845H8.25V11.9178H6.41667V10.0845ZM10.0833 10.0845H11.9167V11.9178H10.0833V10.0845ZM13.75 10.0845H15.5833V11.9178H13.75V10.0845Z" fill="#606060"/>
</g>
</svg>
