<svg width="24" height="25" viewBox="0 0 24 25" fill="none" xmlns="http://www.w3.org/2000/svg">
<g id="filter-list">
<path id="Vector" d="M11 18.8323H13C13.55 18.8323 14 18.3823 14 17.8323C14 17.2823 13.55 16.8323 13 16.8323H11C10.45 16.8323 10 17.2823 10 17.8323C10 18.3823 10.45 18.8323 11 18.8323ZM3 7.83228C3 8.38228 3.45 8.83228 4 8.83228H20C20.55 8.83228 21 8.38228 21 7.83228C21 7.28228 20.55 6.83228 20 6.83228H4C3.45 6.83228 3 7.28228 3 7.83228ZM7 13.8323H17C17.55 13.8323 18 13.3823 18 12.8323C18 12.2823 17.55 11.8323 17 11.8323H7C6.45 11.8323 6 12.2823 6 12.8323C6 13.3823 6.45 13.8323 7 13.8323Z" fill="#E5EEF1"/>
</g>
</svg>
